<svg width="40" height="66" viewBox="0 0 40 66" fill="none" xmlns="http://www.w3.org/2000/svg">
<path d="M39.3057 50.6777C39.3057 49.8492 38.6341 49.1777 37.8057 49.1777H24.3057C23.4772 49.1777 22.8057 49.8492 22.8057 50.6777C22.8057 51.5061 23.4772 52.1777 24.3057 52.1777H36.3057V64.1777C36.3057 65.0061 36.9772 65.6777 37.8057 65.6777C38.6341 65.6777 39.3057 65.0061 39.3057 64.1777V50.6777ZM0.950317 15.3223C0.950317 16.1508 1.62189 16.8223 2.45032 16.8223H15.9503C16.7787 16.8223 17.4503 16.1508 17.4503 15.3223C17.4503 14.4939 16.7787 13.8223 15.9503 13.8223H3.95032V1.82233C3.95032 0.993903 3.27874 0.32233 2.45032 0.32233C1.62189 0.32233 0.950317 0.993903 0.950317 1.82233V15.3223ZM36.745 49.617C27.5677 58.7943 12.6883 58.7943 3.51098 49.617L1.38966 51.7383C11.7386 62.0872 28.5174 62.0872 38.8663 51.7383L36.745 49.617ZM3.51098 16.383C12.6883 7.20567 27.5677 7.20567 36.745 16.383L38.8663 14.2617C28.5174 3.91278 11.7386 3.91278 1.38966 14.2617L3.51098 16.383Z" fill="#FF9314"/>
</svg>
