<svg width="36" height="36" viewBox="0 0 36 36" fill="none" xmlns="http://www.w3.org/2000/svg">
<path d="M33.3951 31.7446L31.2396 33.8995L31.9891 34.561C32.1554 34.7077 32.3983 34.7486 32.6093 34.6654L34.7797 33.8104C35.0901 33.688 35.1645 33.3064 34.92 33.0904L33.3951 31.7446Z" fill="#484848"/>
<path d="M30.7145 33.6469C31.9725 32.8266 32.5807 32.197 33.2207 31.083L30.4401 28.3025L27.9442 30.8767L30.7145 33.6469Z" fill="white" stroke="black" stroke-width="0.5"/>
<path d="M30.781 24.8186L14.6914 8.47778L8.34216 14.9262L24.3686 31.2029C24.8729 31.715 25.6248 31.8431 26.2225 31.5202C28.7236 30.1693 30.0188 28.8787 31.1206 26.6008C31.3992 26.025 31.264 25.3091 30.781 24.8186Z" fill="black" stroke="black" stroke-width="0.5" stroke-linejoin="round"/>
<path d="M2.32886 8.82044L8.12036 14.7024L14.4744 8.2493L8.68286 2.36731" fill="black"/>
<path d="M2.32886 8.82044L8.12036 14.7024L14.4744 8.2493L8.68286 2.36731" stroke="black" stroke-width="0.5"/>
<path d="M2.36075 8.57911C2.3414 8.69982 2.34725 8.76505 2.35355 8.79556C2.38348 8.80191 2.44783 8.80771 2.56663 8.78811C2.79253 8.75088 3.10933 8.63523 3.50308 8.42222C4.28405 7.99965 5.25358 7.2562 6.21028 6.28454C7.16698 5.31286 7.89913 4.32826 8.31515 3.53506C8.52485 3.13524 8.6387 2.81331 8.67538 2.5839C8.69473 2.46321 8.6891 2.39796 8.6828 2.36745C8.65265 2.36113 8.58853 2.35532 8.46973 2.3749C8.24383 2.41213 7.9268 2.52778 7.53305 2.74081C6.75208 3.16336 5.78255 3.90681 4.82585 4.87849C3.86915 5.85016 3.13723 6.83478 2.72098 7.62795C2.51128 8.02779 2.39743 8.3497 2.36075 8.57911Z" fill="black" stroke="black" stroke-width="0.5"/>
<path d="M7.32739 4.92563L3.96612 1.51172L1.45557 4.06129L4.81707 7.47522L7.32739 4.92563Z" fill="white" stroke="black" stroke-width="0.5"/>
</svg>
