<svg width="36" height="36" viewBox="0 0 36 36" fill="none" xmlns="http://www.w3.org/2000/svg">
<g clip-path="url(#clip0_298:44)">
<path d="M26.229 23.1415H24.6029L24.0266 22.5858C26.0437 20.2393 27.2581 17.193 27.2581 13.8791C27.2581 6.48971 21.2684 0.5 13.8791 0.5C6.48971 0.5 0.5 6.48971 0.5 13.8791C0.5 21.2684 6.48971 27.2581 13.8791 27.2581C17.193 27.2581 20.2393 26.0437 22.5858 24.0266L23.1415 24.6029V26.229L33.4331 36.5L36.5 33.4331L26.229 23.1415ZM13.8791 23.1415C8.75386 23.1415 4.61664 19.0043 4.61664 13.8791C4.61664 8.75386 8.75386 4.61664 13.8791 4.61664C19.0043 4.61664 23.1415 8.75386 23.1415 13.8791C23.1415 19.0043 19.0043 23.1415 13.8791 23.1415Z" fill="black"/>
<path d="M18 15H15V18H13.5V15H10.5V13.5H13.5V10.5H15V13.5H18V15Z" fill="black"/>
</g>
<defs>
<clipPath id="clip0_298:44">
<rect width="36" height="36" fill="white"/>
</clipPath>
</defs>
</svg>
