<svg width="33" height="33" viewBox="0 0 33 33" fill="none" xmlns="http://www.w3.org/2000/svg">
<path d="M11.3809 30.3846C11.3809 30.3846 8.58044 26.6967 8.58044 21.0959C8.58044 15.4952 11.3809 11.8074 11.3809 11.8074" stroke="black" stroke-width="1.25" stroke-linecap="round" stroke-linejoin="round"/>
<path d="M13.3896 30.3844C13.3896 30.3844 16.1958 26.689 16.1958 21.0767" stroke="black" stroke-width="1.25" stroke-linecap="round" stroke-linejoin="round"/>
<path d="M3.6073 24.4048L20.9552 24.4048" stroke="black" stroke-width="1.25" stroke-linecap="round" stroke-linejoin="round"/>
<path d="M3.4375 17.7381L11.9216 17.738" stroke="black" stroke-width="1.25" stroke-linecap="round" stroke-linejoin="round"/>
<path d="M21.8895 21.0704C21.8895 26.3297 17.6251 30.5932 12.3647 30.5932C7.10425 30.5932 2.83984 26.3297 2.83984 21.0704C2.83984 15.8111 7.10425 11.5476 12.3647 11.5476" stroke="black" stroke-width="1.25" stroke-linecap="round"/>
<g clip-path="url(#clip0_706_275)">
<path d="M14.827 17.5962L16.0993 18.8681L15.6569 19.2585C15.5588 19.3451 15.4154 19.3693 15.2908 19.3202L14.0097 18.8155C13.8265 18.7433 13.7826 18.518 13.9269 18.3905L14.827 17.5962Z" fill="black"/>
<path d="M16.2177 18.8114C15.5331 18.3649 15.202 18.0223 14.8538 17.4161L16.367 15.9028L17.7253 17.3038L16.2177 18.8114Z" fill="white" stroke="black" stroke-width="0.3"/>
<path d="M16.1815 14.0067L24.9377 5.11377L28.3931 8.62311L19.6713 17.4812C19.3968 17.7599 18.9876 17.8296 18.6623 17.6539C17.3012 16.9187 16.5963 16.2163 15.9967 14.9766C15.8451 14.6633 15.9187 14.2737 16.1815 14.0067Z" fill="black" stroke="black" stroke-width="0.3" stroke-linejoin="round"/>
<path d="M31.6656 5.30024L28.5137 8.50132L25.0558 4.98942L28.2076 1.78833" fill="black"/>
<path d="M31.6656 5.30024L28.5137 8.50132L25.0558 4.98942L28.2076 1.78833" stroke="black" stroke-width="0.3"/>
<path d="M31.6483 5.16892C31.6588 5.23461 31.6556 5.27011 31.6522 5.28671C31.6359 5.29017 31.6009 5.29333 31.5362 5.28266C31.4133 5.2624 31.2409 5.19946 31.0266 5.08353C30.6016 4.85356 30.0739 4.44897 29.5533 3.92017C29.0326 3.39136 28.6342 2.85553 28.4078 2.42386C28.2936 2.20627 28.2317 2.03107 28.2117 1.90622C28.2012 1.84053 28.2043 1.80502 28.2077 1.78842C28.2241 1.78498 28.259 1.78182 28.3236 1.79247C28.4466 1.81274 28.6191 1.87568 28.8334 1.99161C29.2584 2.22157 29.7861 2.62617 30.3067 3.15498C30.8274 3.68377 31.2257 4.21962 31.4522 4.65128C31.5663 4.86888 31.6283 5.04407 31.6483 5.16892Z" fill="black" stroke="black" stroke-width="0.3"/>
<path d="M28.9453 3.18066L30.7746 1.32275L32.1409 2.71028L30.3115 4.56819L28.9453 3.18066Z" fill="white" stroke="black" stroke-width="0.3"/>
</g>
<defs>
<clipPath id="clip0_706_275">
<rect width="19.5918" height="19.5918" fill="white" transform="translate(13.3412 0.5)"/>
</clipPath>
</defs>
</svg>
