<svg width="140" height="139" viewBox="0 0 140 139" fill="none" xmlns="http://www.w3.org/2000/svg">
<path d="M127.341 119.174L118.958 127.494L121.873 130.048C122.52 130.614 123.464 130.773 124.285 130.451L132.725 127.15C133.933 126.677 134.222 125.204 133.271 124.37L127.341 119.174Z" fill="black"/>
<path d="M118.507 128.323C123.399 125.156 125.765 122.725 128.253 118.424L117.44 107.688L107.734 117.627L118.507 128.323Z" fill="white" stroke="black" stroke-width="0.5"/>
<path d="M119.703 95.8275L57.1329 32.7339L32.4414 57.6319L94.7663 120.478C96.7275 122.456 99.6518 122.95 101.976 121.703C111.703 116.487 116.739 111.504 121.024 102.709C122.108 100.486 121.582 97.7214 119.703 95.8275Z" fill="black" stroke="black" stroke-width="0.5" stroke-linejoin="round"/>
<path d="M9.05704 34.0564L31.5795 56.7674L56.2896 31.8512L33.767 9.14014" fill="black"/>
<path d="M9.05704 34.0564L31.5795 56.7674L56.2896 31.8512L33.767 9.14014" stroke="black" stroke-width="0.5"/>
<path d="M9.18054 33.125C9.10529 33.5911 9.12804 33.8429 9.15254 33.9607C9.26891 33.9852 9.51917 34.0077 9.98117 33.932C10.8597 33.7882 12.0917 33.3417 13.6229 32.5192C16.66 30.8876 20.4304 28.0171 24.1509 24.2654C27.8714 20.5136 30.7187 16.712 32.3365 13.6494C33.152 12.1056 33.5948 10.8626 33.7374 9.97681C33.8127 9.51082 33.7908 9.25888 33.7663 9.14108C33.649 9.11667 33.3997 9.09425 32.9377 9.16983C32.0592 9.31361 30.8263 9.76015 29.295 10.5827C26.2579 12.2142 22.4875 15.0847 18.767 18.8365C15.0465 22.5882 12.2002 26.3899 10.5814 29.4525C9.76592 30.9963 9.32317 32.2392 9.18054 33.125Z" fill="black" stroke="black" stroke-width="0.5"/>
<path d="M28.4951 19.0184L15.4235 5.83691L5.66023 15.6811L18.7327 28.8626L28.4951 19.0184Z" fill="white" stroke="black" stroke-width="0.5"/>
</svg>
