<svg width="48" height="46" viewBox="0 0 48 46" fill="none" xmlns="http://www.w3.org/2000/svg">
<path d="M20.3333 7.66675C10.3919 7.66675 2.33325 15.7253 2.33325 25.6667C2.33325 35.6081 10.3919 43.6667 20.3333 43.6667C30.2747 43.6667 38.3333 35.6081 38.3333 25.6667C38.3333 15.7253 30.2747 7.66675 20.3333 7.66675Z" stroke="black" stroke-width="2.955" stroke-linecap="round" stroke-linejoin="round"/>
<path d="M13.1333 42.1691V29.2667L20.3333 16.6667L27.5333 29.2667V42.1691" stroke="black" stroke-width="2.955" stroke-linecap="round" stroke-linejoin="round"/>
<path d="M13.1333 29.2668C13.1333 29.2668 15.1619 31.0668 16.7333 31.0668C18.3047 31.0668 20.3333 29.2668 20.3333 29.2668C20.3333 29.2668 22.3619 31.0668 23.9333 31.0668C25.5047 31.0668 27.5333 29.2668 27.5333 29.2668" stroke="black" stroke-width="2.955" stroke-linecap="round" stroke-linejoin="round"/>
<path d="M28.7578 8.72095L33.5352 14.3493L38.3126 8.72095" stroke="black" stroke-width="2" stroke-linecap="round" stroke-linejoin="round"/>
<circle cx="35.6001" cy="12.8613" r="11.289" fill="#EEEEEE" stroke="black" stroke-width="2"/>
<path d="M30.8232 15.6717L35.5999 10.051L40.3766 15.6717" fill="#EEEEEE"/>
<path d="M30.8232 15.6717L35.5999 10.051L40.3766 15.6717" stroke="black" stroke-width="2" stroke-linecap="round" stroke-linejoin="round"/>
</svg>
