<svg width="36" height="36" viewBox="0 0 36 36" fill="none" xmlns="http://www.w3.org/2000/svg">
<g clip-path="url(#clip0_1106_77)">
<path d="M18 2C9.1632 2 2 9.1632 2 18C2 26.8368 9.1632 34 18 34C26.8368 34 34 26.8368 34 18C34 9.1632 26.8368 2 18 2Z" stroke="black" stroke-width="2.955" stroke-linecap="round" stroke-linejoin="round"/>
<path d="M11.6001 32.6688V21.2L18.0001 10L24.4001 21.2V32.6688" stroke="black" stroke-width="2.955" stroke-linecap="round" stroke-linejoin="round"/>
<path d="M11.6001 21.2C11.6001 21.2 13.4033 22.8 14.8001 22.8C16.1969 22.8 18.0001 21.2 18.0001 21.2C18.0001 21.2 19.8033 22.8 21.2001 22.8C22.5969 22.8 24.4001 21.2 24.4001 21.2" stroke="black" stroke-width="2.955" stroke-linecap="round" stroke-linejoin="round"/>
</g>
<defs>
<clipPath id="clip0_1106_77">
<rect width="36" height="36" fill="white"/>
</clipPath>
</defs>
</svg>
