<svg width="36" height="36" viewBox="0 0 36 36" fill="none" xmlns="http://www.w3.org/2000/svg">
<path d="M30.4444 16.2222V32.9333C30.4444 33.2162 30.3321 33.4875 30.132 33.6876C29.932 33.8876 29.6607 34 29.3778 34H6.62222C6.33932 34 6.06801 33.8876 5.86798 33.6876C5.66794 33.4875 5.55556 33.2162 5.55556 32.9333V16.2222M14.4444 26.8889V16.2222M21.5556 26.8889V16.2222M34 9.11111H25.1111M2 9.11111H10.8889M10.8889 9.11111V3.06667C10.8889 2.78377 11.0013 2.51246 11.2013 2.31242C11.4013 2.11238 11.6727 2 11.9556 2H24.0444C24.3273 2 24.5987 2.11238 24.7987 2.31242C24.9987 2.51246 25.1111 2.78377 25.1111 3.06667V9.11111M10.8889 9.11111H25.1111" stroke="black" stroke-width="2.955" stroke-linecap="round" stroke-linejoin="round"/>
</svg>
