<svg width="88" height="89" viewBox="0 0 88 89" fill="none" xmlns="http://www.w3.org/2000/svg">
<circle cx="44" cy="44.5" r="44" fill="#FF9314"/>
<g filter="url(#filter0_d_1204_72)">
<path fill-rule="evenodd" clip-rule="evenodd" d="M46.9619 58.1719L44.5738 54.3908C44.0743 54.5675 43.5625 54.7231 43.039 54.8563C42.5155 54.9895 41.9915 55.0975 41.4683 55.1811L41.1779 59.6437L33.5053 59.1444L33.7956 54.6834C32.7666 54.3784 31.7705 53.9799 30.8196 53.4951L27.9608 56.9357L22.047 52.0219L24.903 48.5847C24.2564 47.7442 23.6819 46.8381 23.1913 45.8733L18.8598 46.9755L16.9637 39.5241L21.2952 38.4219C21.265 37.3401 21.3365 36.2697 21.5027 35.2225L17.3511 33.5683L20.1969 26.4256L24.3525 28.0813C24.9561 27.2009 25.6406 26.3746 26.3988 25.6149L24.0114 21.8349L30.5121 17.729L32.9003 21.5103C33.3998 21.3336 33.9117 21.178 34.4352 21.0448C34.9587 20.9116 35.4827 20.8036 36.0058 20.7201L36.2963 16.2572L43.9688 16.7565L43.6785 21.2178C44.7076 21.5227 45.7039 21.9213 46.6549 22.4062L49.5134 18.9659L55.4272 23.8797L52.5713 27.3167C53.218 28.157 53.7924 29.0631 54.2829 30.0278L58.6143 28.9256L60.5104 36.3769L56.179 37.4791C56.2093 38.5611 56.1378 39.6316 55.9714 40.6789L60.1226 42.3328L57.2768 49.4756L53.1215 47.82C52.518 48.7004 51.8335 49.5266 51.0754 50.2863L53.4626 54.066L46.9619 58.1719Z" fill="black"/>
<path fill-rule="evenodd" clip-rule="evenodd" d="M59.31 65.7941L58.5779 68.0472L62.4528 69.3063L63.1851 67.0523C63.4648 67.0778 63.748 67.0908 64.0343 67.0908C64.3204 67.0908 64.6036 67.0778 64.8832 67.0524L65.6155 69.3063L69.4904 68.0473L68.7583 65.7942C69.247 65.5031 69.7065 65.1683 70.1315 64.795L72.0491 66.1883L74.4439 62.8921L72.5282 61.5002C72.7504 60.9842 72.9271 60.4438 73.0529 59.8842H75.4212V55.8099H73.053C72.9272 55.2503 72.7506 54.71 72.5283 54.1939L74.444 52.8021L72.0492 49.5059L70.1317 50.899C69.7066 50.5257 69.2471 50.1908 68.7584 49.8996L69.4904 47.6467L65.6155 46.3877L64.8832 48.6415C64.6036 48.616 64.3205 48.603 64.0343 48.603C63.748 48.603 63.4647 48.616 63.1851 48.6415L62.4528 46.3878L58.5779 47.6468L59.3099 49.8998C58.8213 50.1909 58.3618 50.5257 57.9369 50.899L56.0192 49.5058L53.6244 52.8019L55.5402 54.1939C55.318 54.71 55.1414 55.2503 55.0155 55.8099H52.6471V59.8842H55.0156C55.1415 60.4438 55.3181 60.9842 55.5403 61.5002L53.6245 62.8922L56.0193 66.1884L57.9371 64.795C58.362 65.1682 58.8214 65.503 59.31 65.7941Z" fill="black"/>
</g>
<defs>
<filter id="filter0_d_1204_72" x="12.9636" y="16.2572" width="66.4575" height="61.0491" filterUnits="userSpaceOnUse" color-interpolation-filters="sRGB">
<feFlood flood-opacity="0" result="BackgroundImageFix"/>
<feColorMatrix in="SourceAlpha" type="matrix" values="0 0 0 0 0 0 0 0 0 0 0 0 0 0 0 0 0 0 127 0" result="hardAlpha"/>
<feOffset dy="4"/>
<feGaussianBlur stdDeviation="2"/>
<feComposite in2="hardAlpha" operator="out"/>
<feColorMatrix type="matrix" values="0 0 0 0 0 0 0 0 0 0 0 0 0 0 0 0 0 0 0.25 0"/>
<feBlend mode="normal" in2="BackgroundImageFix" result="effect1_dropShadow_1204_72"/>
<feBlend mode="normal" in="SourceGraphic" in2="effect1_dropShadow_1204_72" result="shape"/>
</filter>
</defs>
</svg>
