<svg width="16" height="14" viewBox="0 0 16 14" fill="none" xmlns="http://www.w3.org/2000/svg">
<path d="M7.29289 10.7071C7.68342 11.0976 8.31658 11.0976 8.70711 10.7071L15.0711 4.34315C15.4616 3.95262 15.4616 3.31946 15.0711 2.92893C14.6805 2.53841 14.0474 2.53841 13.6569 2.92893L8 8.58579L2.34315 2.92893C1.95262 2.53841 1.31946 2.53841 0.928932 2.92893C0.538408 3.31946 0.538408 3.95262 0.928932 4.34315L7.29289 10.7071ZM2 12C1.44772 12 1 12.4477 1 13C1 13.5523 1.44772 14 2 14V12ZM14 14C14.5523 14 15 13.5523 15 13C15 12.4477 14.5523 12 14 12V14ZM7 0V10H9V0H7ZM2 14H14V12H2V14Z" fill="black"/>
</svg>
