<svg width="36" height="36" viewBox="0 0 36 36" fill="none" xmlns="http://www.w3.org/2000/svg">
<path stroke-width="4" d="M16.4091 27.5325C17.2878 28.5367 18.7124 28.5367 19.5911 27.5325L33.91 11.1681C34.7887 10.1639 34.7887 8.53575 33.91 7.53153C33.0312 6.52734 31.6067 6.52734 30.7281 7.53153L18.0001 22.0777L5.27215 7.53153C4.39346 6.52734 2.96885 6.52734 2.09016 7.53153C1.21148 8.53575 1.21148 10.1639 2.09016 11.1681L16.4091 27.5325ZM4.50006 30.8571C3.25743 30.8571 2.25006 32.0084 2.25006 33.4286C2.25006 34.8488 3.25743 36 4.50006 36V30.8571ZM31.5001 36C32.7427 36 33.7501 34.8488 33.7501 33.4286C33.7501 32.0084 32.7427 30.8571 31.5001 30.8571V36ZM15.7501 0V25.7143H20.2501V0H15.7501ZM4.50006 36H31.5001V30.8571H4.50006V36Z" fill="black"/>
</svg>
