<svg width="36" height="36" viewBox="0 0 36 36" fill="none" xmlns="http://www.w3.org/2000/svg">
<g clip-path="url(#clip0_298:36)">
<path d="M13.4308 1.88636L34.1136 22.5692C34.6408 23.0963 34.6408 23.9511 34.1136 24.4785L24.5677 34.0244C24.0405 34.5515 23.1857 34.5515 22.6585 34.0244L1.97564 13.3415C1.44846 12.8143 1.44846 11.9595 1.97564 11.4323L11.5215 1.88636C12.0489 1.35917 12.9037 1.35917 13.4308 1.88636Z" fill="#EEEEEE" stroke="black" stroke-width="3"/>
<path d="M12.7064 1.06346C12.243 0.600105 11.4917 0.600105 11.0283 1.06346L0.960619 11.1312C0.497175 11.5946 0.497175 12.3458 0.960619 12.8092L11.8673 23.7159L23.613 11.9702L12.7064 1.06346Z" fill="black"/>
</g>
<defs>
<clipPath id="clip0_298:36">
<rect width="36" height="36" fill="white" transform="matrix(-1 0 0 1 36 0)"/>
</clipPath>
</defs>
</svg>
