<svg width="36" height="36" viewBox="0 0 36 36" fill="none" xmlns="http://www.w3.org/2000/svg">
<g clip-path="url(#clip0_1:10)">
<path d="M22.8159 28.5618L24.6375 30.3708C26.2166 31.9359 28.7847 31.9373 30.3629 30.3708C31.1216 29.618 31.5383 28.6181 31.5383 27.5552C31.5383 26.4923 31.1211 25.4919 30.3633 24.7391L23.6583 18.0867C22.2687 16.7088 19.6547 14.6798 17.7494 16.5693C16.875 17.4378 15.4629 17.432 14.5949 16.5581C13.7264 15.6842 13.7318 14.2716 14.6061 13.404C17.8448 10.1901 22.6314 10.7841 26.8002 14.9205L33.5057 21.5733C35.1144 23.1704 36 25.2944 36 27.5552C36 29.816 35.1144 31.9395 33.5052 33.5366C31.8497 35.1791 29.6757 35.9999 27.5009 35.9999C25.3256 35.9999 23.1507 35.1791 21.4943 33.5357L19.6713 31.7262C18.7974 30.8586 18.7925 29.4465 19.661 28.5722C20.5281 27.6987 21.9416 27.6938 22.8159 28.5618ZM2.49573 2.71967C5.97422 -0.731829 10.8378 -0.919029 14.058 2.27597L16.3287 4.53002C17.2031 5.39807 17.2085 6.80972 16.34 7.68407C15.4715 8.55842 14.0594 8.56337 13.185 7.69532L10.9152 5.44262C9.24707 3.78617 7.06277 4.47287 5.63807 5.88632C4.87848 6.63917 4.46133 7.63952 4.46133 8.70242C4.46133 9.76577 4.87893 10.7661 5.63717 11.519L12.7908 18.6155C16.0619 21.8609 17.5964 20.3376 18.2511 19.6878C19.1255 18.8198 20.5371 18.8252 21.4056 19.6991C22.2741 20.573 22.2687 21.9855 21.3944 22.8531C19.8927 24.3435 18.1787 25.0824 16.3818 25.0824C14.1818 25.0824 11.858 23.9745 9.64847 21.7808L2.49483 14.6843C0.886528 13.0872 3.05176e-05 10.9628 3.05176e-05 8.70197C3.05176e-05 6.44207 0.886528 4.31762 2.49573 2.71967Z" fill="black"/>
</g>
<defs>
<clipPath id="clip0_1:10">
<rect width="36" height="36" fill="white" transform="matrix(-1 0 0 1 36 0)"/>
</clipPath>
</defs>
</svg>
