<svg width="40" height="72" viewBox="0 0 40 72" fill="none" xmlns="http://www.w3.org/2000/svg">
<path d="M39.18 53.6823C39.18 52.8539 38.5084 52.1823 37.68 52.1823H24.18C23.3516 52.1823 22.68 52.8539 22.68 53.6823C22.68 54.5107 23.3516 55.1823 24.18 55.1823H36.18V67.1823C36.18 68.0107 36.8516 68.6823 37.68 68.6823C38.5084 68.6823 39.18 68.0107 39.18 67.1823L39.18 53.6823ZM0.824646 18.327C0.824646 19.1554 1.49622 19.827 2.32465 19.827L15.8246 19.827C16.6531 19.827 17.3246 19.1554 17.3246 18.327C17.3246 17.4985 16.6531 16.827 15.8246 16.827L3.82465 16.827L3.82465 4.82697C3.82465 3.99854 3.15307 3.32697 2.32465 3.32697C1.49622 3.32697 0.824646 3.99854 0.824646 4.82697L0.824646 18.327ZM36.6193 52.6216C27.442 61.799 12.5626 61.799 3.38531 52.6216L1.26399 54.743C11.6129 65.0919 28.3918 65.0919 38.7406 54.743L36.6193 52.6216ZM3.38531 19.3876C12.5626 10.2103 27.442 10.2103 36.6193 19.3876L38.7406 17.2663C28.3918 6.91741 11.6129 6.91741 1.26399 17.2663L3.38531 19.3876Z" fill="#FF9314"/>
</svg>
