<svg width="16" height="16" viewBox="0 0 16 16" fill="red" xmlns="http://www.w3.org/2000/svg">
<path d="M1.1577 14.1087L2.11569 15.0664L1.78258 15.3604C1.70868 15.4256 1.60073 15.4438 1.50692 15.4068L0.542312 15.0268C0.404343 14.9724 0.371275 14.8028 0.479957 14.7068L1.1577 14.1087Z" fill="#484848"/>
<path d="M2.34916 14.9542C1.79004 14.5896 1.51971 14.3098 1.23528 13.8147L2.47112 12.5789L3.58038 13.723L2.34916 14.9542Z" fill="white" stroke="black" stroke-width="0.5"/>
<path d="M2.31959 11.0305L9.47051 3.76793L12.2924 6.63389L5.16956 13.868C4.94542 14.0956 4.61121 14.1525 4.3456 14.009C3.23397 13.4086 2.65834 12.835 2.16863 11.8226C2.04483 11.5667 2.10492 11.2485 2.31959 11.0305Z" stroke="black" stroke-width="0.5" stroke-linejoin="round"/>
<path d="M14.9649 3.92017L12.3909 6.53439L9.5669 3.66633L12.1409 1.05211" stroke="black" stroke-width="0.5"/>
<path d="M14.9508 3.81294C14.9594 3.86659 14.9568 3.89558 14.954 3.90914C14.9407 3.91196 14.9121 3.91454 14.8593 3.90583C14.7589 3.88928 14.6181 3.83788 14.4431 3.74321C14.096 3.5554 13.6651 3.22498 13.2399 2.79313C12.8147 2.36127 12.4893 1.92367 12.3044 1.57114C12.2112 1.39344 12.1606 1.25036 12.1443 1.1484C12.1357 1.09476 12.1382 1.06576 12.141 1.0522C12.1544 1.04939 12.1829 1.04681 12.2357 1.05551C12.3361 1.07206 12.477 1.12346 12.652 1.21814C12.9991 1.40594 13.43 1.73636 13.8552 2.16822C14.2804 2.60007 14.6057 3.03768 14.7907 3.3902C14.8839 3.56791 14.9345 3.71098 14.9508 3.81294Z" stroke="black" stroke-width="0.5"/>
<path d="M12.7434 2.18917L14.2373 0.671877L15.3531 1.80502L13.8591 3.32232L12.7434 2.18917Z" fill="white" stroke="black" stroke-width="0.5"/>
</svg>
