<svg width="80" height="60" viewBox="0 0 80 60" fill="none" xmlns="http://www.w3.org/2000/svg">
<path d="M10 1H70C74.9706 1 79 5.02944 79 10V50C79 54.9706 74.9706 59 70 59H10C5.02944 59 1 54.9706 1 50V10C1 5.02944 5.02944 1 10 1ZM42.2175 41.0665C42.5972 40.9162 42.896 40.6719 43.1076 40.376C43.2314 40.2797 43.3459 40.1671 43.4477 40.0387L59.4691 19.8295C60.1553 18.9639 60.0099 17.706 59.1443 17.0198L47.9019 8.10701C47.0363 7.42082 45.7784 7.56622 45.0921 8.43178L29.0708 28.641C28.9689 28.7694 28.8854 28.9065 28.8198 29.0491C28.5801 29.3226 28.4104 29.6692 28.3506 30.0732L26.27 44.152C26.0449 45.6751 27.553 46.8707 28.9846 46.3041L42.2175 41.0665ZM30.0877 31.9994L39.9458 39.8147L28.2485 44.4444L30.0877 31.9994ZM31.5261 28.7632L46.6594 9.67426L57.9018 18.587L42.7685 37.676C42.7539 37.6637 42.7391 37.6516 42.724 37.6396L31.5716 28.7983C31.5565 28.7864 31.5414 28.7747 31.5261 28.7632Z" fill="white" stroke="black" stroke-width="2"/>
</svg>
