<svg width="36" height="36" viewBox="0 0 36 36" fill="none" xmlns="http://www.w3.org/2000/svg">
<g clip-path="url(#clip0_298:56)">
<path d="M35.1855 22.8054H34.371V2.44344C34.371 1.99368 34.0063 1.62896 33.5566 1.62896H18.8145V0.81448C18.8145 0.364724 18.4498 0 18 0C17.5502 0 17.1855 0.364724 17.1855 0.81448V1.62896H2.44344C1.99368 1.62896 1.62896 1.99368 1.62896 2.44344V22.8054H0.814479C0.364724 22.8054 0 23.1702 0 23.6199C0 24.0697 0.364724 24.4344 0.814479 24.4344H17.1855V28.182L11.0739 34.625C10.7643 34.9514 10.7779 35.4668 11.1043 35.7764C11.4306 36.0862 11.9462 36.0724 12.2557 35.746L17.1855 30.5489V35.1855C17.1855 35.6353 17.5502 36 18 36C18.4498 36 18.8145 35.6353 18.8145 35.1855V30.5489L23.7443 35.746C23.9044 35.9149 24.1196 36 24.3353 36C24.5366 36 24.7382 35.9259 24.8957 35.7764C25.2221 35.4668 25.2357 34.9514 24.9261 34.625L18.8145 28.182V24.4344H35.1855C35.6353 24.4344 36 24.0697 36 23.6199C36 23.1702 35.6353 22.8054 35.1855 22.8054ZM3.25792 3.25792H32.7421V22.8054H3.25792V3.25792Z" fill="black" stroke="black" stroke-width="2"/>
</g>
<defs>
<clipPath id="clip0_298:56">
<rect width="36" height="36" fill="white"/>
</clipPath>
</defs>
</svg>
